<?xml version="1.0" encoding="UTF-8"?>
<svg id="Vrstva_2" data-name="Vrstva 2" xmlns="http://www.w3.org/2000/svg" viewBox="0 0 827.41 851.74">
  <defs>
    <style>
      .cls-1 {
        fill: #6fac37;
      }

      .cls-2 {
        fill: #004500;
      }

      .cls-3 {
        fill: #00bee6;
      }

      .cls-4 {
        fill: none;
      }

      .cls-5 {
        fill: #e5e5e5;
      }

      .cls-6 {
        fill: #00082f;
      }
    </style>
  </defs>
  <g id="Vrstva_1-2" data-name="Vrstva 1">
    <g>
      <polygon class="cls-4" points="0 1.72 0 0 827.41 0 827.41 851.74 0 851.74 0 848.3 823.41 848.3 823.41 1.72 0 1.72"/>
      <path class="cls-3" d="M539.96,300.4c6.89-1.02,12.16,3.56,17.7,6.48,26.35,13.89,73.54,43.5,97.17,61.39,12.96,9.82,20.69,19.2,14.5,36.33-35.09,64.97-54.47,155.26-89.79,217.78-8.06,14.27-16.66,19.58-33.26,16.08-10.83-2.28-70.58-42.57-84.5-51.86-17.06-11.39-45.35-22.27-37.61-46.61,34.39-61.92,80.28-118.26,112.71-180.88-4.22-15.41-23.75-54.72,3.08-58.71ZM593.51,351.91l-43.15-23.46c12.65,33.44,1.2,56.28-18.96,83.23-21.01,28.08-41.61,58.4-59.97,87.46-4.13,6.55-28.23,44.3-28.51,47.03-.76,7.45,27.85,21.37,35.24,26.38,17.18,11.65,35.25,26.14,52.61,37.89,6.35,4.3,24.91,14.81,28.74,4.56l89.18-218.76c.79-4.07-.36-6.3-3.18-9.13-8.36-8.41-34.87-21.4-46.78-29.18-2.95-1.93-4.08-5.32-5.2-6.03Z"/>
      <path class="cls-1" d="M308.03,428c5.95,9.65,50.99,32.88,57.48,36.3,16.12,3.17,43.5-19.84,57.82-7.33,24.85,15.05-59.59,106.84-68.2,131.32-6.7,8.29-18.87,11.64-28.48,6.64l-222.61-91.48c-33.73-19.14-5.25-45.35,9.06-68.44,13-20.1,41.02-72.14,58.81-83.76,23.67-7.11,58.52,28.67,77.95,41.31,18.85,12.27,39.03,23.42,58.17,35.42Z"/>
      <path class="cls-2" d="M241.6,405.66c-20.28-5.83-35.82-23.43-54.3-33.1-3.18-1.74-3.86-4.02-8.15-1.57-8.03,4.58-18.39,28.02-23.98,36.45-12.66,19.07-33.48,45.45-42.78,65.04-1.44,3.04-4.19,5.18-2.79,9.4.26.77,10.92,11.05,11.71,11.27,60.35,20.71,115.77,49.86,175.32,68.26,11.39,4.05,34.04,19.12,44.39,12.78l60.25-96.71c-10.84-1.77-19.9,6.09-30.22,6.48-45.77-10.19-89.05-54.36-129.44-78.31Z"/>
      <path class="cls-5" d="M340.99,261.85c34.24-7.82,41.67,18.92,58.71,41.25,24.44-15.97,22.96-50.86,61.83-41.25v110.98h-28.55v-57.07c-14.22,6.15-16.75,27.52-33.25,28.78-10.58-1.03-17-29.12-30.19-28.78v57.07h-28.55v-110.98Z"/>
      <path class="cls-6" d="M592.28,351.91c1.11.71,2.24,4.1,5.2,6.03,11.9,7.78,38.42,20.77,46.78,29.18,2.82,2.84,3.97,5.06,3.18,9.13l-89.18,218.76c-3.82,10.25-22.39-.26-28.74-4.56-17.36-11.75-35.43-26.24-52.61-37.89-7.39-5.01-36-18.93-35.24-26.38.28-2.74,24.38-40.49,28.51-47.03,18.36-29.06,38.96-59.38,59.97-87.46,20.16-26.95,31.61-49.79,18.96-83.23l43.15,23.46ZM605.69,399.93c0-7.91-6.42-14.32-14.33-14.32s-14.33,6.41-14.33,14.32,6.42,14.32,14.33,14.32,14.33-6.41,14.33-14.32ZM578.74,460.15c0-9.74-7.9-17.64-17.65-17.64s-17.65,7.9-17.65,17.64,7.9,17.64,17.65,17.64,17.65-7.9,17.65-17.64ZM545.96,529.8c0-11.72-9.5-21.21-21.22-21.21s-21.22,9.5-21.22,21.21,9.5,21.21,21.22,21.21,21.22-9.5,21.22-21.21Z"/>
      <path class="cls-3" d="M238.57,18.38c19.2-4.37,32.82,8.04,48.24,17.03,13.73,8.01,86.71,52.98,90.6,61.62,3.19,7.08,2.64,17.85-.07,25.21l-110.15,169.17c-5.48,16.45,19.29,43.34,5.48,59.12-9.66,11.03-17.84,4.74-27.81-.51-23.97-12.62-80.83-47.61-100.29-64.61-11.82-10.33-16.91-18.97-9.89-34.78,32.63-68.78,54.93-148.37,88.37-216.03,3.93-7.96,5.68-13.96,15.52-16.2ZM330.31,159.29c2.09-11.54,32.55-44.73,28.35-52.8l-104.28-67.31c-10.23-7.59-15.98,11.64-19.61,19.79-28.29,63.44-49.63,130.4-79.46,193.26l.09,15.99,96.77,60.21c-3.07-14.94-9.9-28.89-4.89-44.55l83.04-124.59Z"/>
      <path class="cls-1" d="M581.17,281.79c-21.19-13.04-46.9-25.73-67.5-38.72-16-10.09-56.84-41.86-71.02-46.36-21.42-6.81-48.36,15.25-62.25,5.12-12.32-8.98-6.05-19.63-.72-29.73,12.35-23.42,48.1-81.3,64.64-100.25,16.4-18.79,22.63-12.9,43.37-5.79,71.8,24.59,142.22,61.69,214.03,87.28,12.6,7.03,15.68,25.92,7.77,37.75l-70.2,107.37c-19.3,18.06-35.01,2.3-52.12-8.56-3.22-2.04-4.17-6.98-6.01-8.11Z"/>
      <path class="cls-2" d="M666.49,222.64c4.02-6.43,27.02-44.75,26.36-47.68l-2.9-3.45-220.85-90.37-7.06.5-60.75,93.05c-1.22,6.81,2.44,5,7.21,4.05,16.98-3.38,22.34-9.6,41.11-1.69,17.48,7.38,52.92,33.87,71.42,45.77,29.59,20.15,66.85,49.23,98.06,63.97,16.12-1.59,33.46-56.19,47.41-64.16Z"/>
      <path class="cls-6" d="M330.31,159.29l-83.04,124.59c-5.01,15.65,1.83,29.6,4.89,44.55l-96.77-60.21-.09-15.99c29.84-62.85,51.18-129.82,79.46-193.26,3.63-8.15,9.38-27.38,19.61-19.79l104.28,67.31c4.2,8.06-26.27,41.26-28.35,52.8ZM292.66,143.8c3.07-3.08,4.33-12.17,4.12-16.65-1.44-32.12-50.29-25.11-40.06,8.01,4.47,14.48,27.37,17.21,35.94,8.63ZM258.01,196.88c0-9.79-7.94-17.73-17.74-17.73s-17.74,7.94-17.74,17.73,7.94,17.73,17.74,17.73,17.74-7.94,17.74-17.73ZM224.13,256.81c0-7.97-6.46-14.43-14.43-14.43s-14.43,6.46-14.43,14.43,6.46,14.43,14.43,14.43,14.43-6.46,14.43-14.43Z"/>
      <path class="cls-3" d="M292.66,143.8c-8.56,8.58-31.47,5.85-35.94-8.63-10.23-33.13,38.62-40.14,40.06-8.01.2,4.48-1.05,13.57-4.12,16.65Z"/>
      <ellipse class="cls-3" cx="240.27" cy="196.88" rx="17.74" ry="17.73"/>
      <ellipse class="cls-3" cx="209.7" cy="256.81" rx="14.43" ry="14.43"/>
      <path class="cls-1" d="M585.98,219.89c-19.86-19.89,17.33-53.59,34.38-29.62,17.06,24.01-18.75,45.27-34.38,29.62Z"/>
      <ellipse class="cls-1" cx="533.16" cy="167.91" rx="17.72" ry="17.71"/>
      <path class="cls-1" d="M473.11,123c15.9-1.71,19.49,23,5.24,27.26-28.46,8.5-24.39-25.2-5.24-27.26Z"/>
      <ellipse class="cls-3" cx="525.98" cy="529.8" rx="21.22" ry="21.21"/>
      <ellipse class="cls-3" cx="562.32" cy="460.15" rx="17.65" ry="17.64"/>
      <ellipse class="cls-3" cx="592.59" cy="399.93" rx="14.33" ry="14.32"/>
      <ellipse class="cls-1" cx="199.46" cy="452.82" rx="21.05" ry="21.04"/>
      <ellipse class="cls-1" cx="269.26" cy="489.31" rx="17.55" ry="17.54"/>
      <ellipse class="cls-1" cx="329.48" cy="519.44" rx="14.31" ry="14.3"/>
      <path class="cls-5" d="M150.67,699.41v120.49c-4.55.82-19.03.13-19.03-4.76v-71.34l-38.53,75.61-19.66.62-40.14-79.4v79.27H14.27v-115.73c0-5.32,19.88-7.53,23.83-1.62l44.37,91.93c7.38-.02,36.85-87.45,51.34-94.47l16.86-.59Z"/>
      <path class="cls-5" d="M250.59,699.41c32.96,5.71,37.17,57.45,4.94,68.35-5.2,1.76-19.06-.95-16.02,6.12,1.72,4,17.44,16.84,22.11,22.3,2.38,2.78,18.2,21.71,15.91,23.7-38.04,9.31-41.98-50.09-76.11-50.72v50.73h-19.03v-120.49c20.65,2.49,48.6-3.39,68.2,0ZM198.25,712.1c3.25,16.31-9.17,45.14,10.94,47.7,20.16,2.57,58.25-3.09,50.48-31.14-1.58-5.68-10.08-16.56-15.42-16.56h-45.99Z"/>
      <path class="cls-5" d="M483.73,753.32h60.27v-49.15c0-4.88,14.48-5.58,19.03-4.76v120.49c-4.55.82-19.03.13-19.03-4.76v-49.15h-60.27v49.15c0,4.88-14.48,5.58-19.03,4.76v-120.49c4.55-.82,19.03-.13,19.03,4.76v49.15Z"/>
      <path class="cls-5" d="M699.41,819.88c-29.99,6.71-22.6-22.46-36.88-37.62l-49.07,1.54c-7.9,15.9-7.94,41.21-31.39,36.09-.97-7.22,1.68-13.3,3.88-19.88,3.79-11.33,38.99-96.25,43.63-99.05,5.69-3.44,18.52-3.27,21.92,3.55l47.91,115.37ZM658.2,772.34c3.72-3.33-9.97-39.42-13.43-45.25-2.41-4.06-3.07-6.62-8.75-5.48-3.55,17.58-17.69,32.29-15.91,50.72h38.09Z"/>
      <path class="cls-5" d="M442.48,724.77c-14.28-1.29-25.37-11.33-40.49-11.87-47.69-1.68-61.68,66.75-24.1,87.56,25.41,14.07,40.43-.29,64.59-5.91,6.91,29.08-41.91,28.08-61.11,24.62-58.3-10.5-60.54-108.19,3.18-119.02,18.53-3.15,65.04-3.19,57.92,24.61Z"/>
      <path class="cls-5" d="M800.93,699.41v12.67s-38.06.01-38.06.01v103.05c0,6.49-22.2,6.49-22.2,0v-103.05h-38.08s.01-12.68.01-12.68h98.33Z"/>
    </g>
  </g>
</svg>