<?xml version="1.0" encoding="UTF-8"?>
<svg id="Vrstva_2" data-name="Vrstva 2" xmlns="http://www.w3.org/2000/svg" viewBox="0 0 814.46 809.76">
  <defs>
    <style>
      .cls-1 {
        fill: #6fac37;
      }

      .cls-2 {
        fill: #004500;
      }

      .cls-3 {
        fill: #00bee6;
      }

      .cls-4 {
        fill: #e5e5e5;
      }

      .cls-5 {
        fill: #00082f;
      }
    </style>
  </defs>
  <g id="Vrstva_1-2" data-name="Vrstva 1">
    <g>
      <path class="cls-3" d="M588.1,368.31c8.97-1.33,15.82,4.63,23.04,8.44,34.3,18.09,95.73,56.63,126.49,79.92,16.88,12.78,26.94,24.99,18.88,47.3-45.68,84.58-70.91,202.12-116.89,283.51-10.5,18.58-21.68,25.49-43.29,20.93-14.1-2.97-91.88-55.42-110-67.52-22.21-14.83-59.04-28.99-48.96-60.67,44.77-80.61,104.51-153.95,146.73-235.48-5.5-20.07-30.92-71.23,4-76.43ZM657.82,435.38l-56.18-30.54c16.47,43.54,1.57,73.27-24.69,108.35-27.35,36.55-54.17,76.02-78.07,113.85-5.38,8.52-36.75,57.67-37.12,61.23-.99,9.7,36.25,27.81,45.87,34.34,22.36,15.17,45.88,34.03,68.48,49.33,8.26,5.59,32.43,19.28,37.41,5.94l116.09-284.78c1.03-5.3-.47-8.2-4.14-11.89-10.88-10.95-45.4-27.86-60.9-37.99-3.85-2.51-5.32-6.92-6.77-7.85Z"/>
      <path class="cls-1" d="M286.18,534.43c7.74,12.56,66.38,42.81,74.82,47.26,20.99,4.13,56.63-25.83,75.27-9.54,32.35,19.6-77.57,139.09-88.79,170.96-8.73,10.79-24.57,15.15-37.08,8.65L20.61,632.67c-43.91-24.92-6.84-59.04,11.8-89.1,16.92-26.16,53.41-93.92,76.56-109.04,30.81-9.26,76.18,37.33,101.47,53.78,24.54,15.97,50.81,30.49,75.73,46.11Z"/>
      <path class="cls-2" d="M199.69,505.35c-26.4-7.59-46.63-30.5-70.69-43.09-4.13-2.26-5.02-5.24-10.61-2.05-10.45,5.96-23.94,36.47-31.22,47.45-16.48,24.83-43.59,59.16-55.69,84.67-1.88,3.96-5.46,6.74-3.64,12.24.33,1,14.22,14.39,15.24,14.67,78.56,26.97,150.71,64.91,228.23,88.86,14.82,5.28,44.31,24.88,57.79,16.64,0,0,78.44-125.89,78.44-125.89-14.11-2.3-25.9,7.93-39.34,8.44-59.58-13.27-115.93-70.76-168.51-101.95Z"/>
      <path class="cls-4" d="M329.08,318.14c44.57-10.18,54.25,24.63,76.43,53.7,31.81-20.8,29.89-66.21,80.49-53.7v144.47h-37.16v-74.3c-18.51,8.01-21.81,35.82-43.28,37.47-13.77-1.34-22.13-37.91-39.31-37.47v74.3h-37.16v-144.47Z"/>
      <path class="cls-5" d="M656.21,435.38c1.45.93,2.92,5.33,6.77,7.85,15.5,10.13,50.02,27.04,60.9,37.99,3.67,3.69,5.17,6.58,4.14,11.89l-116.09,284.78c-4.98,13.34-29.15-.34-37.41-5.94-22.6-15.3-46.12-34.16-68.48-49.33-9.62-6.53-46.86-24.64-45.87-34.34.36-3.56,31.74-52.71,37.12-61.23,23.89-37.83,50.72-77.3,78.07-113.85,26.25-35.08,41.15-64.82,24.69-108.35l56.18,30.54ZM673.67,497.89c0-10.3-8.35-18.65-18.65-18.65s-18.65,8.35-18.65,18.65,8.35,18.65,18.65,18.65,18.65-8.35,18.65-18.65ZM638.59,576.29c0-12.69-10.29-22.97-22.98-22.97s-22.98,10.28-22.98,22.97,10.29,22.97,22.98,22.97,22.98-10.28,22.98-22.97ZM595.92,666.96c0-15.25-12.37-27.61-27.63-27.61s-27.63,12.36-27.63,27.61,12.37,27.61,27.63,27.61,27.63-12.36,27.63-27.61Z"/>
      <path class="cls-3" d="M195.75,1.18c25-5.68,42.73,10.46,62.8,22.17,17.88,10.42,112.88,68.97,117.94,80.21,4.16,9.22,3.43,23.24-.09,32.82l-143.4,220.22c-7.13,21.41,25.12,56.43,7.14,76.96-12.57,14.36-23.22,6.17-36.2-.67-31.21-16.43-105.22-61.97-130.56-84.11-15.39-13.44-22.01-24.69-12.87-45.28C102.99,213.96,132.02,110.34,175.55,22.27c5.12-10.36,7.39-18.18,20.2-21.09ZM315.17,184.62c2.72-15.02,42.38-58.23,36.91-68.73L216.33,28.26c-13.32-9.88-20.8,15.15-25.53,25.76-36.83,82.58-64.6,169.76-103.45,251.58l.12,20.82,125.97,78.38c-3.99-19.45-12.89-37.62-6.37-57.99l108.1-162.19Z"/>
      <path class="cls-1" d="M641.75,344.1c-27.58-16.97-61.06-33.5-87.87-50.4-20.83-13.13-74-54.49-92.45-60.35-27.89-8.86-62.96,19.85-81.04,6.67-16.04-11.69-7.87-25.55-.94-38.71,16.07-30.49,62.61-105.84,84.15-130.51,21.36-24.47,29.46-16.79,56.46-7.54,93.47,32.01,185.15,80.31,278.63,113.62,16.4,9.15,20.41,33.74,10.12,49.15l-91.38,139.78c-25.13,23.51-45.58,3-67.85-11.14-4.19-2.66-5.43-9.08-7.82-10.55Z"/>
      <path class="cls-2" d="M752.83,267.1c5.23-8.38,35.17-58.25,34.32-62.06l-3.77-4.49-287.51-117.64-9.19.65s-79.09,121.14-79.09,121.14c-1.59,8.86,3.18,6.51,9.39,5.27,22.1-4.4,29.09-12.5,53.51-2.19,22.76,9.61,68.89,44.09,92.97,59.58,38.52,26.24,87.03,64.09,127.65,83.28,20.99-2.07,43.56-73.15,61.72-83.53Z"/>
      <path class="cls-5" d="M315.17,184.62l-108.1,162.19c-6.52,20.37,2.38,38.54,6.37,57.99l-125.97-78.38-.12-20.82c38.84-81.82,66.62-169,103.45-251.58,4.73-10.61,12.21-35.64,25.53-25.76l135.76,87.63c5.47,10.5-34.19,53.71-36.91,68.73ZM266.17,164.45c4-4,5.63-15.84,5.37-21.67-1.88-41.82-65.46-32.69-52.15,10.43,5.82,18.85,35.63,22.4,46.78,11.24ZM221.06,233.56c0-12.75-10.34-23.08-23.09-23.08s-23.09,10.33-23.09,23.08,10.34,23.08,23.09,23.08,23.09-10.33,23.09-23.08ZM176.95,311.58c0-10.37-8.41-18.78-18.79-18.78s-18.79,8.41-18.79,18.78,8.41,18.78,18.79,18.78,18.79-8.41,18.79-18.78Z"/>
      <path class="cls-3" d="M266.17,164.45c-11.15,11.17-40.96,7.61-46.78-11.24-13.31-43.13,50.27-52.25,52.15-10.43.26,5.83-1.37,17.66-5.37,21.67Z"/>
      <ellipse class="cls-3" cx="197.97" cy="233.56" rx="23.09" ry="23.08"/>
      <ellipse class="cls-3" cx="158.17" cy="311.58" rx="18.79" ry="18.78"/>
      <path class="cls-1" d="M648.01,263.52c-25.86-25.9,22.56-69.77,44.75-38.55,22.22,31.25-24.41,58.93-44.75,38.55Z"/>
      <ellipse class="cls-1" cx="579.26" cy="195.84" rx="23.06" ry="23.05"/>
      <path class="cls-1" d="M501.08,137.38c20.7-2.22,25.37,29.94,6.82,35.48-37.05,11.07-31.75-32.81-6.82-35.48Z"/>
      <ellipse class="cls-3" cx="569.9" cy="666.96" rx="27.63" ry="27.61"/>
      <ellipse class="cls-3" cx="617.22" cy="576.29" rx="22.98" ry="22.97"/>
      <ellipse class="cls-3" cx="656.62" cy="497.89" rx="18.65" ry="18.65"/>
      <ellipse class="cls-1" cx="144.83" cy="566.74" rx="27.4" ry="27.39"/>
      <ellipse class="cls-1" cx="235.7" cy="614.24" rx="22.84" ry="22.83"/>
      <ellipse class="cls-1" cx="314.1" cy="653.47" rx="18.62" ry="18.62"/>
    </g>
  </g>
</svg>